<?xml version="1.0" encoding="UTF-8" standalone="no" ?>
<svg xmlns="http://www.w3.org/2000/svg" xmlns:xlink="http://www.w3.org/1999/xlink" version="1.1" width="2048" height="2048" viewBox="0 0 2048 2048" xml:space="preserve">
<desc>Created with Fabric.js 5.2.4</desc>
<defs>
</defs>
<rect x="0" y="0" width="100%" height="100%" fill="transparent"></rect>
<g transform="matrix(1 0 0 1 1024 1024)" id="f7b9ca8a-9274-4a5a-890e-3df28749ad0c"  >
<rect style="stroke: none; stroke-width: 1; stroke-dasharray: none; stroke-linecap: butt; stroke-dashoffset: 0; stroke-linejoin: miter; stroke-miterlimit: 4; fill-rule: nonzero; opacity: 1; visibility: hidden;" vector-effect="non-scaling-stroke"  x="-1024" y="-1024" rx="0" ry="0" width="2048" height="2048" />
</g>
<g transform="matrix(0 0 0 0 0 0)" id="e53384c3-1f96-4470-9abc-d0cfbffa6e5f"  >
</g>
<g transform="matrix(0 0 0 0 0 0)"  >
<g style=""   >
</g>
</g>
<g transform="matrix(5.34 0 0 5.34 1024 1057.4)"  >
<g style="" vector-effect="non-scaling-stroke"   >
		<g transform="matrix(0.13 0 0 -0.13 -144.19 -11.78)"  >
<path style="stroke: none; stroke-width: 1; stroke-dasharray: none; stroke-linecap: butt; stroke-dashoffset: 0; stroke-linejoin: miter; stroke-miterlimit: 4; fill-rule: nonzero; opacity: 1;" vector-effect="non-scaling-stroke"  transform=" translate(-450.82, -1546.26)" d="M 170 2283 C 171 1946 169 1894 156 1884 C 139 1872 111 1811 103 1770 C 94 1723 95 1645 105 1645 C 114 1645 118 1629 138 1508 C 147 1458 164 1430 186 1430 C 198 1430 200 1372 200 1090 C 200 870 196 750 190 750 C 185 750 180 746 180 740 C 180 735 188 730 199 730 C 217 730 218 747 225 1079 L 232 1428 L 255 1428 C 288 1428 290 1404 290 1016 C 290 738 293 665 306 613 C 321 554 321 547 306 531 C 287 510 286 471 304 448 C 314 434 332 430 382 430 C 455 430 470 440 470 486 C 470 516 472 518 510 522 C 532 524 550 522 550 518 C 550 513 557 510 565 510 C 575 510 580 500 580 476 C 580 448 585 440 610 430 C 644 416 670 422 670 445 C 670 453 674 460 680 460 C 685 460 687 453 684 445 C 680 436 684 430 693 430 C 701 430 710 441 712 455 C 716 474 713 480 699 480 C 688 480 680 487 680 495 C 680 503 686 510 694 510 C 702 510 712 518 716 527 C 729 555 740 766 741 990 C 742 1123 746 1197 753 1202 C 760 1206 764 1278 765 1405 C 765 1531 769 1604 776 1608 C 782 1612 792 1636 798 1662 C 808 1700 807 1727 795 1797 C 787 1845 775 1889 770 1894 C 764 1900 760 1912 760 1922 C 760 1946 710 1970 658 1970 L 615 1971 L 643 1991 C 658 2003 683 2035 697 2064 C 728 2125 730 2197 703 2273 C 685 2322 678 2332 624 2375 C 605 2390 590 2413 586 2432 C 583 2450 578 2476 575 2490 C 572 2504 567 2530 564 2549 C 562 2568 558 2586 555 2588 C 553 2591 555 2602 561 2612 C 569 2628 568 2636 557 2647 C 539 2666 520 2656 520 2628 C 520 2617 514 2596 506 2582 C 472 2518 430 2422 430 2407 C 430 2398 417 2384 402 2376 C 354 2351 344 2330 333 2233 C 329 2202 334 2179 354 2140 C 385 2079 385 2078 364 2023 C 351 1990 340 1978 309 1966 C 287 1957 261 1950 251 1950 C 241 1950 227 1943 220 1935 C 213 1927 205 1920 201 1920 C 198 1920 196 2089 198 2295 C 200 2629 199 2670 185 2670 C 171 2670 170 2627 170 2283 z M 547 2522 C 553 2496 538 2480 506 2480 C 494 2480 490 2485 494 2496 C 497 2505 500 2519 500 2529 C 500 2556 540 2550 547 2522 z M 563 2455 C 572 2434 555 2427 510 2435 C 471 2442 463 2449 477 2463 C 490 2477 558 2470 563 2455 z M 570 2409 C 570 2404 569 2398 568 2397 C 566 2395 571 2386 578 2377 C 590 2363 588 2362 553 2367 C 532 2370 506 2378 495 2383 C 484 2389 469 2393 463 2392 C 449 2389 448 2392 455 2412 C 461 2427 570 2425 570 2409 z M 552 2353 C 638 2347 667 2330 677 2279 C 680 2263 687 2247 691 2244 C 708 2234 701 2116 680 2076 C 650 2015 631 2000 589 2000 C 561 2000 541 2009 508 2036 C 451 2083 440 2098 440 2132 C 440 2147 435 2160 430 2160 C 413 2160 407 2130 418 2107 C 424 2095 431 2067 433 2045 C 436 2011 438 2009 445 2027 L 452 2050 L 484 2029 C 501 2017 525 1996 538 1981 C 557 1959 562 1957 570 1970 C 578 1983 581 1983 596 1968 C 612 1952 612 1950 585 1940 C 569 1934 522 1927 481 1924 C 415 1920 402 1922 382 1939 L 358 1960 L 379 2003 C 403 2053 405 2085 386 2122 C 354 2182 348 2218 360 2273 C 374 2340 410 2375 455 2364 C 466 2361 510 2356 552 2353 z M 366 1925 C 383 1903 392 1900 454 1900 C 529 1900 595 1915 622 1938 C 643 1956 718 1949 731 1928 C 747 1903 779 1795 780 1760 C 785 1658 781 1630 760 1630 C 742 1630 741 1635 747 1711 C 752 1779 751 1792 739 1788 C 730 1785 724 1764 722 1724 C 721 1692 717 1658 713 1650 C 701 1620 698 1440 709 1440 C 715 1440 720 1422 720 1400 C 720 1338 703 1332 508 1325 C 405 1321 334 1323 322 1329 C 310 1335 303 1352 302 1381 C 300 1404 298 1426 297 1430 C 295 1435 316 1455 410 1533 C 440 1558 474 1570 515 1570 C 574 1570 615 1607 605 1653 C 602 1671 598 1697 597 1712 C 595 1737 592 1739 532 1742 L 469 1745 L 475 1719 C 483 1685 433 1635 382 1625 C 361 1621 330 1609 312 1598 C 294 1587 278 1579 277 1581 C 276 1583 269 1595 262 1608 C 252 1626 252 1630 265 1630 C 277 1630 279 1640 274 1678 C 266 1747 260 1773 253 1766 C 249 1763 248 1735 249 1705 L 251 1650 L 181 1650 L 110 1650 L 110 1689 C 110 1711 115 1732 120 1735 C 126 1738 130 1752 130 1765 C 130 1802 160 1870 176 1870 C 184 1870 190 1875 190 1880 C 190 1886 198 1894 207 1897 C 216 1901 232 1911 242 1919 C 259 1934 296 1946 331 1949 C 340 1949 356 1939 366 1925 z M 580 1706 C 580 1683 554 1669 526 1676 C 509 1680 500 1689 500 1701 C 500 1716 507 1720 540 1720 C 567 1720 580 1716 580 1706 z M 577 1644 C 595 1626 593 1620 570 1620 C 559 1620 550 1616 550 1611 C 550 1605 535 1604 517 1607 C 495 1610 478 1607 469 1598 C 461 1591 435 1573 410 1558 C 385 1544 345 1513 321 1491 C 283 1456 270 1450 233 1450 C 179 1450 165 1463 157 1520 C 153 1545 147 1580 144 1598 L 138 1630 L 181 1630 C 232 1630 254 1606 244 1565 C 237 1537 251 1532 274 1555 C 282 1563 293 1570 297 1570 C 302 1570 325 1579 348 1590 C 370 1601 398 1610 409 1610 C 420 1610 435 1617 444 1625 C 452 1633 463 1640 469 1640 C 475 1640 480 1646 480 1653 C 480 1669 559 1663 577 1644 z M 748 1453 C 750 1366 748 1299 744 1302 C 741 1306 738 1343 739 1385 C 740 1426 736 1460 731 1460 C 722 1460 718 1588 727 1603 C 741 1626 745 1594 748 1453 z M 715 791 C 712 783 707 735 705 686 C 703 636 698 580 695 562 L 687 529 L 616 532 L 545 535 L 546 625 C 547 675 550 812 552 930 C 554 1048 554 1151 552 1158 C 538 1198 532 1148 531 973 C 530 864 527 722 524 656 L 518 538 L 451 544 C 415 547 374 550 361 550 C 346 550 340 555 343 564 C 346 571 345 581 340 586 C 328 599 303 729 305 765 C 306 782 308 908 308 1047 L 310 1299 L 423 1300 C 625 1303 691 1307 703 1319 C 712 1328 716 1271 718 1068 C 719 924 718 799 715 791 z M 434 519 C 447 505 449 470 438 463 C 418 451 338 449 323 462 C 307 475 306 502 323 519 C 334 530 425 530 434 519 z M 650 484 C 663 450 663 450 640 450 C 622 450 600 476 600 499 C 600 522 641 510 650 484 z" stroke-linecap="round" />
</g>
		<g transform="matrix(0.13 0 0 -0.13 -129.56 -104.96)"  >
<path style="stroke: none; stroke-width: 1; stroke-dasharray: none; stroke-linecap: butt; stroke-dashoffset: 0; stroke-linejoin: miter; stroke-miterlimit: 4; fill-rule: nonzero; opacity: 1;" vector-effect="non-scaling-stroke"  transform=" translate(-554.28, -2272.6)" d="M 485 2291 C 465 2283 465 2283 485 2278 C 501 2273 499 2272 478 2271 C 462 2271 450 2266 450 2260 C 450 2247 469 2247 510 2262 C 540 2272 542 2274 524 2281 C 509 2287 512 2289 538 2289 C 560 2290 570 2285 570 2275 C 570 2264 581 2260 609 2260 C 646 2260 670 2273 653 2283 C 637 2293 504 2299 485 2291 z" stroke-linecap="round" />
</g>
		<g transform="matrix(0.13 0 0 -0.13 -116.58 -94.46)"  >
<path style="stroke: none; stroke-width: 1; stroke-dasharray: none; stroke-linecap: butt; stroke-dashoffset: 0; stroke-linejoin: miter; stroke-miterlimit: 4; fill-rule: nonzero; opacity: 1;" vector-effect="non-scaling-stroke"  transform=" translate(-649.64, -2193.86)" d="M 626 2205 C 628 2194 630 2181 630 2177 C 630 2172 640 2170 653 2172 C 681 2176 682 2194 653 2198 C 641 2200 629 2207 627 2213 C 625 2220 624 2216 626 2205 z" stroke-linecap="round" />
</g>
		<g transform="matrix(0.13 0 0 -0.13 -133.32 -94.21)"  >
<path style="stroke: none; stroke-width: 1; stroke-dasharray: none; stroke-linecap: butt; stroke-dashoffset: 0; stroke-linejoin: miter; stroke-miterlimit: 4; fill-rule: nonzero; opacity: 1;" vector-effect="non-scaling-stroke"  transform=" translate(-524.36, -2192.06)" d="M 490 2196 C 490 2175 503 2170 536 2179 C 565 2186 565 2187 543 2198 C 513 2214 490 2213 490 2196 z" stroke-linecap="round" />
</g>
		<g transform="matrix(0.13 0 0 -0.13 -119.38 -84.4)"  >
<path style="stroke: none; stroke-width: 1; stroke-dasharray: none; stroke-linecap: butt; stroke-dashoffset: 0; stroke-linejoin: miter; stroke-miterlimit: 4; fill-rule: nonzero; opacity: 1;" vector-effect="non-scaling-stroke"  transform=" translate(-628.52, -2118.05)" d="M 610 2153 C 610 2146 615 2138 621 2134 C 627 2131 629 2117 626 2104 C 618 2074 636 2072 645 2101 C 650 2116 646 2129 631 2143 C 619 2155 610 2159 610 2153 z" stroke-linecap="round" />
</g>
		<g transform="matrix(0.13 0 0 -0.13 -126.25 -82.27)"  >
<path style="stroke: none; stroke-width: 1; stroke-dasharray: none; stroke-linecap: butt; stroke-dashoffset: 0; stroke-linejoin: miter; stroke-miterlimit: 4; fill-rule: nonzero; opacity: 1;" vector-effect="non-scaling-stroke"  transform=" translate(-577.5, -2102.56)" d="M 540 2106 C 540 2086 566 2079 592 2091 L 615 2101 L 592 2096 C 575 2093 570 2095 574 2106 C 577 2115 573 2120 560 2120 C 549 2120 540 2114 540 2106 z" stroke-linecap="round" />
</g>
		<g transform="matrix(0.13 0 0 -0.13 -124.07 -75.24)"  >
<path style="stroke: none; stroke-width: 1; stroke-dasharray: none; stroke-linecap: butt; stroke-dashoffset: 0; stroke-linejoin: miter; stroke-miterlimit: 4; fill-rule: nonzero; opacity: 1;" vector-effect="non-scaling-stroke"  transform=" translate(-594.07, -2050.08)" d="M 555 2050 C 583 2038 640 2038 640 2050 C 640 2056 616 2060 588 2059 C 549 2059 540 2056 555 2050 z" stroke-linecap="round" />
</g>
		<g transform="matrix(0.13 0 0 -0.13 -147.76 -65.56)"  >
<path style="stroke: none; stroke-width: 1; stroke-dasharray: none; stroke-linecap: butt; stroke-dashoffset: 0; stroke-linejoin: miter; stroke-miterlimit: 4; fill-rule: nonzero; opacity: 1;" vector-effect="non-scaling-stroke"  transform=" translate(-415.79, -1977.04)" d="M 405 1980 C 380 1953 393 1943 419 1969 C 431 1981 440 1992 440 1995 C 440 2006 422 1999 405 1980 z" stroke-linecap="round" />
</g>
		<g transform="matrix(0.13 0 0 -0.13 40.56 139.1)"  >
<path style="stroke: none; stroke-width: 1; stroke-dasharray: none; stroke-linecap: butt; stroke-dashoffset: 0; stroke-linejoin: miter; stroke-miterlimit: 4; fill-rule: nonzero; opacity: 1;" vector-effect="non-scaling-stroke"  transform=" translate(-1855, -439.33)" d="M 760 565 C 760 555 770 550 789 550 C 805 550 829 546 842 541 C 855 536 957 523 1070 511 C 1183 499 1311 485 1355 480 C 1399 475 1471 468 1515 464 C 1559 461 1622 454 1655 449 C 1731 437 1931 419 2035 415 C 2115 412 2280 393 2485 365 C 2546 356 2631 345 2675 340 C 2784 327 2898 311 2926 304 C 2940 300 2950 302 2950 309 C 2950 324 2891 337 2740 354 C 2666 363 2578 374 2545 380 C 2512 385 2447 394 2400 400 C 2353 405 2277 414 2230 420 C 2183 426 2084 435 2010 440 C 1936 445 1828 453 1770 460 C 1712 466 1620 475 1565 480 C 1415 494 1080 529 1040 535 C 1021 538 983 542 955 544 C 911 548 865 557 783 575 C 767 579 760 576 760 565 z" stroke-linecap="round" />
</g>
		<g transform="matrix(0.13 0 0 -0.13 -1 143.61)"  >
<path style="stroke: none; stroke-width: 1; stroke-dasharray: none; stroke-linecap: butt; stroke-dashoffset: 0; stroke-linejoin: miter; stroke-miterlimit: 4; fill-rule: nonzero; opacity: 1;" vector-effect="non-scaling-stroke"  transform=" translate(-1532.5, -407.16)" d="M 870 472 C 870 460 895 439 902 445 C 904 448 931 446 961 441 C 991 436 1060 428 1115 425 C 1170 422 1233 417 1255 415 C 1442 395 1486 393 1498 402 C 1507 410 1521 408 1548 396 C 1577 383 1592 381 1613 389 C 1635 397 1646 396 1663 385 C 1681 374 1694 373 1723 381 C 1755 390 1766 388 1795 370 C 1826 351 1833 350 1870 361 C 1900 370 1916 370 1933 362 C 1945 356 1966 351 1980 351 C 1994 351 2034 347 2070 341 C 2120 334 2141 335 2165 346 L 2195 360 L 2153 355 C 2130 352 2109 354 2106 358 C 2103 363 2087 365 2070 362 C 2054 360 2033 363 2025 370 C 2016 377 2000 380 1985 376 C 1969 372 1951 375 1939 383 C 1924 394 1909 395 1873 388 C 1835 379 1822 381 1798 394 C 1777 407 1758 409 1726 405 C 1698 400 1680 402 1676 409 C 1667 423 1617 423 1603 409 C 1594 400 1582 401 1555 414 C 1522 430 1517 430 1494 416 C 1475 403 1470 402 1470 413 C 1470 422 1458 427 1438 427 C 1420 427 1342 432 1265 439 C 1188 446 1109 453 1090 454 C 937 467 884 473 878 477 C 873 479 870 477 870 472 z" stroke-linecap="round" />
</g>
</g>
</g>
<g transform="matrix(1 0 0 1 1389.87 728.11)" style="" id="cc52174c-86f7-45d1-8451-46659fc7b8d3"  >
		<text xml:space="preserve" font-size="140" font-style="normal" font-weight="900" style="stroke: none; stroke-width: 1; stroke-dasharray: none; stroke-linecap: butt; stroke-dashoffset: 0; stroke-linejoin: miter; stroke-miterlimit: 4; fill-rule: nonzero; opacity: 1; white-space: pre;" ><tspan x="-819.2" y="-98.4" style="white-space: pre; ">They don't know </tspan><tspan x="-819.2" y="43.98" >that this page</tspan><tspan x="-819.2" y="186.36" >doesn't exist</tspan></text>
</g>
</svg>